<?xml version="1.0" encoding="utf-8"?>
<!-- Generator: Adobe Illustrator 22.0.0, SVG Export Plug-In . SVG Version: 6.00 Build 0)  -->
<svg version="1.1" id="Layer_1" xmlns="http://www.w3.org/2000/svg" xmlns:xlink="http://www.w3.org/1999/xlink" x="0px" y="0px"
	 viewBox="0 0 650 650" style="enable-background:new 0 0 650 650;" xml:space="preserve">
<style type="text/css">
	.st0{fill:#2B2B99;stroke:#000000;stroke-width:0.75;stroke-miterlimit:10;}
	.st1{fill:#FCC5D1;stroke:#000000;stroke-width:0.75;stroke-miterlimit:10;}
	.st2{fill:#FFFDA4;stroke:#000000;stroke-width:0.75;stroke-miterlimit:10;}
	.st3{fill:none;}
	.st4{fill:#FFFFFF;stroke:#000000;stroke-width:0.75;stroke-miterlimit:10;}
	.st5{font-family:'RoundyRainbows';}
	.st6{font-size:52px;}
</style>
<g>
	<path class="st0" d="M367.6,395.4l-28.1-15.1c-3.8-2-8.2-2-12,0.1l-27.9,15.5c-9.4,5.2-20.5-3-18.7-14l5.2-32.5
		c0.7-4.3-0.7-8.8-3.8-11.8l-22.8-22.8c-7.7-7.7-3.5-21.2,7-22.9l31.3-4.9c4.2-0.7,7.8-3.4,9.6-7.4l13.8-29.6
		c4.7-10,18.3-10.1,23.1-0.1l14.2,29.4c1.9,3.9,5.5,6.7,9.7,7.3l31.3,4.5c10.6,1.5,14.8,15,7.3,22.8l-22.5,23.1
		c-3,3.1-4.4,7.5-3.6,11.9l5.5,32.4C388.1,392.1,377.1,400.5,367.6,395.4z"/>
	<path class="st1" d="M360.3,400.1L332.2,385c-3.8-2-8.2-2-12,0.1l-27.9,15.5c-9.4,5.2-20.5-3-18.7-14l5.2-32.5
		c0.7-4.3-0.7-8.8-3.8-11.8l-22.8-22.8c-7.7-7.7-3.5-21.2,7-22.9l31.3-4.9c4.2-0.7,7.8-3.4,9.6-7.4l13.8-29.6
		c4.7-10,18.3-10.1,23.1-0.1l14.2,29.4c1.9,3.9,5.5,6.7,9.7,7.3l31.3,4.5c10.6,1.5,14.8,15,7.3,22.8l-22.5,23.1
		c-3,3.1-4.4,7.5-3.6,11.9l5.5,32.4C380.7,396.8,369.7,405.2,360.3,400.1z"/>
	<path class="st2" d="M351.5,403.7l-28.1-15.1c-3.8-2-8.2-2-12,0.1l-27.9,15.5c-9.4,5.2-20.5-3-18.7-14l5.2-32.5
		c0.7-4.3-0.7-8.8-3.8-11.8L243.5,323c-7.7-7.7-3.5-21.2,7-22.9l31.3-4.9c4.2-0.7,7.8-3.4,9.6-7.4l13.8-29.6
		c4.7-10,18.3-10.1,23.1-0.1l14.2,29.4c1.9,3.9,5.5,6.7,9.7,7.3l31.3,4.5c10.6,1.5,14.8,15,7.3,22.8l-22.5,23.1
		c-3,3.1-4.4,7.5-3.6,11.9l5.5,32.4C371.9,400.4,360.9,408.8,351.5,403.7z"/>
	<rect x="281" y="311" class="st3" width="89" height="64"/>
	<text transform="matrix(1 0 0 1 281 349.9229)" class="st4 st5 st6">MK</text>
</g>
</svg>
